Coordinates
version=1
nRows=32
nColumns=12
inDegrees=yes

Units are S.I. units (second, meters, Newtons, ...)
Angles are in degrees

endheader
time	SC_y	SC_z	SC_x	AC_y	AC_z	AC_x	GH_y	GH_z	GH_yy	EL_x	PS_y
       0.0              -17.62         -2.928          64.38          60.04          3.572          4.776          73.14          73.36         -82.41          106.8          138.3
  0.003382              -17.62         -2.924          64.38          60.03          3.571          4.773          73.12          73.35         -82.41          106.8          138.3
  0.006765              -17.62         -2.918          64.37          60.03          3.571           4.77          73.11          73.34         -82.42          106.8          138.3
   0.01015              -17.63         -2.913          64.37          60.03           3.57          4.767           73.1          73.33         -82.42          106.8          138.3
   0.01353              -17.63         -2.907          64.36          60.02          3.569          4.764          73.08          73.32         -82.43          106.8          138.3
   0.01691              -17.64         -2.901          64.35          60.02          3.568          4.761          73.06          73.31         -82.43          106.8          138.2
   0.02029              -17.64         -2.894          64.34          60.01          3.567          4.757          73.05           73.3         -82.44          106.8          138.2
   0.02368              -17.65         -2.887          64.33          60.01          3.566          4.753          73.03          73.29         -82.45          106.8          138.2
   0.02706              -17.65          -2.88          64.32           60.0          3.565          4.749          73.01          73.28         -82.45          106.7          138.2
   0.03044              -17.66         -2.872          64.31           60.0          3.563          4.745          72.99          73.27         -82.46          106.7          138.2
   0.03382              -17.67         -2.863           64.3          59.99          3.562           4.74          72.96          73.25         -82.47          106.7          138.1
   0.03721              -17.67         -2.853          64.29          59.98          3.561          4.735          72.94          73.24         -82.48          106.7          138.1
   0.04059              -17.68         -2.843          64.28          59.98          3.559          4.729          72.91          73.22         -82.49          106.7          138.1
   0.04397              -17.69         -2.832          64.27          59.97          3.557          4.723          72.88           73.2          -82.5          106.7          138.1
   0.04735               -17.7         -2.821          64.25          59.96          3.556          4.717          72.85          73.19         -82.51          106.7          138.0
   0.05073              -17.71         -2.808          64.24          59.95          3.554          4.709          72.82          73.17         -82.52          106.7          138.0
   0.05412              -17.72         -2.794          64.22          59.94          3.551          4.702          72.78          73.14         -82.53          106.6          138.0
    0.0575              -17.73         -2.778           64.2          59.93          3.549          4.693          72.74          73.12         -82.55          106.6          137.9
   0.06088              -17.74         -2.762          64.18          59.92          3.547          4.684           72.7          73.09         -82.56          106.6          137.9
   0.06426              -17.76         -2.744          64.16          59.91          3.544          4.674          72.65          73.06         -82.58          106.6          137.8
   0.06765              -17.77         -2.724          64.13          59.89          3.541          4.663           72.6          73.03          -82.6          106.6          137.8
   0.07103              -17.79         -2.702          64.11          59.88          3.537          4.651          72.54           73.0         -82.62          106.5          137.7
   0.07441              -17.81         -2.677          64.08          59.86          3.534          4.638          72.48          72.96         -82.64          106.5          137.7
   0.07779              -17.83         -2.651          64.04          59.84           3.53          4.623          72.41          72.92         -82.67          106.5          137.6
   0.08118              -17.85         -2.621          64.01          59.82          3.525          4.607          72.33          72.87          -82.7          106.4          137.5
   0.08456              -17.88         -2.587          63.97          59.79           3.52          4.588          72.25          72.81         -82.73          106.4          137.4
   0.08794              -17.91          -2.55          63.92          59.77          3.514          4.568          72.15          72.76         -82.76          106.4          137.3
   0.09132              -17.94         -2.508          63.87          59.74          3.508          4.545          72.04          72.69          -82.8          106.3          137.2
   0.09471              -17.97          -2.46          63.81          59.71            3.5          4.519          71.91          72.61         -82.85          106.3          137.1
   0.09809              -18.02         -2.406          63.74          59.67          3.492          4.489          71.77          72.53          -82.9          106.2          137.0
    0.1015              -18.06         -2.345          63.67          59.62          3.483          4.455          71.61          72.43         -82.96          106.1          136.8
    0.1049              -18.12         -2.274          63.58          59.57          3.472          4.416          71.43          72.32         -83.03          106.0          136.6
